<?xml version="1.0" encoding="UTF-8"?>
<svg width="60px" height="60px" viewBox="0 0 60 60" version="1.1" xmlns="http://www.w3.org/2000/svg" xmlns:xlink="http://www.w3.org/1999/xlink">
    <!-- Generator: Sketch 59 (86127) - https://sketch.com -->
    <title>graphics/brands/company/adidas</title>
    <desc>Created with Sketch.</desc>
    <defs>
        <path d="M36.3991191,34.8267352 L36.3991191,45.7611825 L34.4271596,45.7611825 L34.4271596,45.3125964 C33.7557286,45.7467866 32.9683302,46 32.1160209,46 L32.1160209,46 L32.0944694,46 C29.7402278,45.9856041 27.8259954,44.0606684 27.8259954,41.7015424 C27.8259954,39.3426735 29.7402278,37.4174807 32.0944694,37.4030848 L32.0944694,37.4030848 L32.1160209,37.4030848 C32.9683302,37.4030848 33.7557286,37.6562982 34.4271596,38.0904884 L34.4271596,38.0904884 L34.4271596,34.8267352 L36.3991191,34.8267352 Z M41.3749432,37.4030848 C42.2275091,37.4030848 43.0218348,37.6562982 43.6863384,38.0904884 L43.6863384,38.0904884 L43.6863384,37.6200514 L45.6580414,37.6200514 L45.6580414,45.7611825 L43.6863384,45.7611825 L43.6863384,45.3125964 C43.0218348,45.7467866 42.2275091,46 41.3749432,46 L41.3749432,46 L41.3533917,46 C38.9991501,45.9856041 37.0851743,44.0606684 37.0851743,41.7015424 C37.0851743,39.3426735 38.9991501,37.4174807 41.3533917,37.4030848 L41.3533917,37.4030848 Z M10.2830982,37.4030848 C11.135151,37.4030848 11.9297332,37.6562982 12.6014207,38.0904884 L12.6014207,38.0904884 L12.6014207,37.6200514 L14.5731237,37.6200514 L14.5731237,45.7611825 L12.6014207,45.7611825 L12.6014207,45.3125964 C11.9297332,45.7467866 11.135151,46 10.2830982,46 L10.2830982,46 L10.2612902,46 C7.91397585,45.9856041 6,44.0606684 6,41.7015424 C6,39.3426735 7.91397585,37.4174807 10.2612902,37.4030848 L10.2612902,37.4030848 Z M23.9259489,34.8267352 L23.9259489,45.7611825 L21.9542459,45.7611825 L21.9542459,45.3125964 C21.2828149,45.7467866 20.4882327,46 19.6359234,46 L19.6359234,46 L19.6143719,46 C17.2598737,45.9856041 15.3458979,44.0606684 15.3458979,41.7015424 C15.3458979,39.3426735 17.2598737,37.4174807 19.6143719,37.4030848 L19.6143719,37.4030848 L19.6359234,37.4030848 C20.4882327,37.4030848 21.2828149,37.6562982 21.9542459,38.0904884 L21.9542459,38.0904884 L21.9542459,34.8267352 L23.9259489,34.8267352 Z M50.1071373,37.3089974 C51.0533495,37.3089974 51.8114995,37.4467866 52.3821003,37.7143959 C52.4326436,37.7359897 52.4760031,37.7575835 52.5193626,37.7866324 C53.3426801,38.2352185 53.761651,38.9732648 53.761651,40.0010283 L53.761651,40.0010283 L51.6673099,40.0010283 C51.6021423,39.6534704 51.5010557,39.407455 51.3637933,39.2701799 C51.1400685,39.0457584 50.7572734,38.9300771 50.230032,38.9300771 C49.7099745,38.9300771 49.3487308,39.0167095 49.1463009,39.1904884 C48.9949275,39.3205656 48.9153923,39.5015424 48.9153923,39.725964 C48.9153923,40.044473 49.3559146,40.2976864 50.230032,40.4930591 C51.226531,40.7100257 51.941578,40.8982005 52.3821003,41.0501285 C52.4978112,41.0935733 52.5986413,41.1298201 52.6709926,41.1660668 C53.5594777,41.5856041 54,42.2226221 54,43.0766067 C54,44.118509 53.5666615,44.8784062 52.7071683,45.3560411 C52.5986413,45.4138817 52.4978112,45.4645244 52.3821003,45.5151671 C51.8261237,45.7539846 51.1759876,45.8771208 50.446573,45.8771208 C49.3559146,45.8771208 48.47487,45.681491 47.8031825,45.2979434 C46.9583135,44.8061697 46.5390861,44.0606684 46.5390861,43.0619537 L46.5390861,43.0619537 L48.7347705,43.0619537 C48.7347705,43.4383033 48.8720328,43.7352185 49.1393737,43.9380463 C49.406458,44.1475578 49.8616045,44.2560411 50.5043001,44.2560411 C50.988182,44.2560411 51.3491691,44.1547558 51.5877747,43.9521851 C51.7753238,43.7928021 51.8617862,43.6192802 51.8617862,43.4164524 C51.8617862,43.0766067 51.4289609,42.8087404 50.5692111,42.6208226 C49.2838198,42.3455013 48.47487,42.1213368 48.1423616,41.9622108 C47.2615735,41.5498715 46.8279784,40.9128535 46.8279784,40.0298201 C46.8279784,39.3205656 47.0519598,38.7200514 47.5142901,38.2280206 C48.0920748,37.6128535 48.9587518,37.3089974 50.1071373,37.3089974 Z M27.0534778,37.4030848 L27.0534778,45.7611825 L24.9083368,45.7611825 L24.9083368,37.4030848 L27.0534778,37.4030848 Z M32.1160209,39.3426735 L32.0944694,39.3426735 C30.8016377,39.3496144 29.7545955,40.4061697 29.7545955,41.7015424 C29.7545955,42.9969152 30.8016377,44.0534704 32.0944694,44.0678663 L32.0944694,44.0678663 L32.1160209,44.0678663 C33.2574791,44.0678663 34.218059,43.2357326 34.4271596,42.1501285 L34.4271596,42.1501285 L34.4271596,41.2526992 C34.218059,40.1673522 33.2574791,39.3426735 32.1160209,39.3426735 L32.1160209,39.3426735 Z M41.3749432,39.3426735 L41.3533917,39.3426735 C40.0605601,39.3496144 39.0132612,40.4061697 39.0132612,41.7015424 C39.0132612,42.9969152 40.0605601,44.0534704 41.3533917,44.0678663 L41.3533917,44.0678663 L41.3749432,44.0678663 C42.5164015,44.0678663 43.4769813,43.2357326 43.6863384,42.1501285 L43.6863384,42.1501285 L43.6863384,41.2526992 C43.4769813,40.1673522 42.5164015,39.3426735 41.3749432,39.3426735 L41.3749432,39.3426735 Z M10.2830982,39.3426735 L10.2612902,39.3426735 C8.97564235,39.3496144 7.92860006,40.4061697 7.92860006,41.7015424 C7.92860006,42.9969152 8.97564235,44.0534704 10.2612902,44.0678663 L10.2612902,44.0678663 L10.2830982,44.0678663 C11.4314837,44.0678663 12.3920636,43.2357326 12.6014207,42.1501285 L12.6014207,42.1501285 L12.6014207,41.2526992 C12.3920636,40.1673522 11.4314837,39.3426735 10.2830982,39.3426735 L10.2830982,39.3426735 Z M19.6359234,39.3426735 L19.6143719,39.3426735 C18.3215402,39.3496144 17.2742414,40.4061697 17.2742414,41.7015424 C17.2742414,42.9969152 18.3215402,44.0534704 19.6143719,44.0678663 L19.6143719,44.0678663 L19.6359234,44.0678663 C20.7843089,44.0678663 21.7448887,43.2357326 21.9542459,42.1501285 L21.9542459,42.1501285 L21.9542459,41.2526992 C21.7448887,40.1673522 20.7843089,39.3426735 19.6359234,39.3426735 L19.6359234,39.3426735 Z M27.0534778,34.8701799 L27.0534778,36.759126 L24.9083368,36.759126 L24.9083368,34.8701799 L27.0534778,34.8701799 Z M52.3895407,33.8861183 C52.5986413,33.8861183 52.8010712,33.9442159 53.0032445,34.0524422 C53.2056744,34.1609254 53.3644882,34.3131105 53.4727587,34.5156812 C53.588213,34.7182519 53.6387563,34.9280206 53.6387563,35.1524422 C53.6387563,35.3622108 53.588213,35.5722365 53.4727587,35.7748072 C53.3644882,35.9773779 53.2128582,36.1293059 53.0104283,36.2380463 C52.8085115,36.3539846 52.6060817,36.4043702 52.3895407,36.4043702 L52.3895407,36.4043702 C52.1655593,36.4043702 51.963386,36.3539846 51.7609561,36.2380463 C51.5587828,36.1293059 51.4071528,35.9773779 51.2988823,35.7748072 C51.183428,35.5722365 51.1328847,35.3622108 51.1328847,35.1524422 C51.1328847,34.9280206 51.183428,34.7182519 51.2988823,34.5156812 C51.4140801,34.3131105 51.5662232,34.1609254 51.7683965,34.0524422 C51.9705698,33.9442159 52.1724866,33.8933162 52.3821003,33.8861183 L52.3821003,33.8861183 Z M52.3895407,34.0958869 C52.2089188,34.0958869 52.0354808,34.1465296 51.8694832,34.233419 C51.7029724,34.3275064 51.5731505,34.4580977 51.4795042,34.6241645 C51.3856014,34.7907455 51.335058,34.9642674 51.335058,35.1524422 C51.335058,35.333419 51.3856014,35.5069409 51.4795042,35.6735219 C51.5662232,35.8326478 51.6960452,35.962982 51.8617862,36.0570694 C52.028297,36.1508997 52.201735,36.1943445 52.3821003,36.1943445 L52.3821003,36.1943445 C52.569906,36.1943445 52.743344,36.1508997 52.9095982,36.0570694 C53.0755958,35.962982 53.2056744,35.8326478 53.2921368,35.6735219 C53.3860397,35.5069409 53.4293992,35.333419 53.4293992,35.1524422 C53.4293992,34.9642674 53.3860397,34.7907455 53.2921368,34.6241645 C53.198234,34.4580977 53.068412,34.3275064 52.9021578,34.233419 C52.7359036,34.1465296 52.5627222,34.0958869 52.3895407,34.0958869 L52.3895407,34.0958869 Z M52.3028217,34.4866324 C52.3313004,34.4866324 52.3605488,34.4938303 52.3821003,34.4938303 C52.4978112,34.4938303 52.5842736,34.5084833 52.6420008,34.5300771 C52.7143521,34.551671 52.7718227,34.5951157 52.8154388,34.6604113 C52.8587983,34.7182519 52.8806063,34.7832905 52.8806063,34.8557841 C52.8806063,34.9570694 52.8444307,35.0439589 52.7718227,35.1161954 C52.6999845,35.1884319 52.6060817,35.2321337 52.4906274,35.2390746 C52.5411707,35.2609254 52.5770898,35.2830334 52.6060817,35.3115681 C52.656625,35.3622108 52.7287198,35.4562982 52.8085115,35.5794344 L52.8085115,35.5794344 L52.9673254,35.8470437 L52.7071683,35.8470437 L52.5842736,35.6300771 C52.5047384,35.492545 52.4398275,35.3912596 52.3821003,35.3403599 C52.3749165,35.333419 52.3677327,35.3262211 52.353365,35.3187661 C52.3171893,35.2830334 52.2594622,35.2681234 52.179927,35.2681234 L52.179927,35.2681234 L52.0498485,35.2681234 L52.0498485,35.8470437 L51.8333075,35.8470437 L51.8333075,34.4866324 Z M52.3821003,34.6748072 L52.0498485,34.6748072 L52.0498485,35.0799486 L52.3821003,35.0799486 C52.4760031,35.0727506 52.5411707,35.0583548 52.5770898,35.022108 C52.6201927,34.9858612 52.6420008,34.9352185 52.6420008,34.8773779 C52.6420008,34.8339332 52.634817,34.7976864 52.6132655,34.7688946 C52.591714,34.7326478 52.5627222,34.711054 52.5193626,34.696401 C52.4906274,34.6894602 52.4472678,34.6820051 52.3821003,34.6748072 L52.3821003,34.6748072 Z M17.9674804,28.8277635 L19.6143719,31.5701799 L21.5642669,34.8267352 L12.0380037,34.8267352 L10.9691534,33.0393316 L17.9674804,28.8277635 Z M34.7955871,14 L41.3533917,24.9269923 L47.283125,34.8267352 L37.7568618,34.8267352 L32.0944694,25.3686375 L27.8044439,18.2115681 L32.0944694,15.6282776 L34.7955871,14 Z M26.3817903,21.4102828 L32.0944694,30.933419 L34.4202323,34.8267352 L24.9008964,34.8267352 L19.6143719,26.0125964 L19.3832067,25.6290488 L19.6143719,25.4915167 L26.3817903,21.4102828 Z" id="path-1"></path>
    </defs>
    <g id="graphics/brands/company/adidas" stroke="none" stroke-width="1" fill="none" fill-rule="evenodd">
        <mask id="mask-2" fill="white">
            <use xlink:href="#path-1"></use>
        </mask>
        <use id="Combined-Shape" fill="#000000" xlink:href="#path-1"></use>
        <g id="colors/black" mask="url(#mask-2)" fill="#0A0B09">
            <rect id="Rectangle" x="0" y="0" width="60" height="60"></rect>
        </g>
    </g>
</svg>