<?xml version="1.0" encoding="UTF-8"?>
<svg width="60px" height="60px" viewBox="0 0 60 60" version="1.1" xmlns="http://www.w3.org/2000/svg" xmlns:xlink="http://www.w3.org/1999/xlink">
    <!-- Generator: Sketch 59 (86127) - https://sketch.com -->
    <title>graphics/brands/company/jordanbrand</title>
    <desc>Created with Sketch.</desc>
    <defs>
        <path d="M31.8154944,12.6581861 C31.7994515,12.5732155 31.7885567,12.4852655 31.7823311,12.396243 C31.6962502,11.1624411 32.6292521,10.0925025 33.868745,10.005506 C35.1094351,9.91958197 36.1840694,10.8494918 36.2705094,12.0834129 C36.3570692,13.3172148 35.4237082,14.3871534 34.184335,14.4740308 C34.1059164,14.4799894 34.0283358,14.481062 33.9523117,14.4780826 C33.902028,14.4909534 33.8718578,14.4970312 33.8286378,14.5350475 C33.7011327,14.7328753 34.1530873,14.6960507 33.8457582,15.5608919 C33.8457582,15.5608919 33.8438426,15.6557539 33.8096018,15.7508543 C33.7855374,16.0828713 33.6570746,17.0666475 33.6388767,17.5906528 C33.7041258,17.6665662 33.7224434,17.7036291 33.71526,17.8876328 C33.6861673,18.136586 33.6287002,18.7466345 33.5363937,19.1375232 C33.4582146,19.4725195 33.3207725,19.5363964 33.2101484,19.6185069 C33.0543887,20.3124534 33.0132039,20.8873458 32.6135683,21.7302591 C32.577412,22.3691475 32.5322764,22.5432598 32.3975879,22.8552557 C32.3826226,23.7961295 32.4478716,23.9361582 31.8101068,25.4259445 C31.6453679,26.1227512 31.8019657,26.6046883 31.9758036,27.3286666 C32.1535923,28.0726659 32.6468514,28.3835893 32.7200022,29.1454646 C32.8928823,30.9398581 32.8495425,32.1616235 32.462837,33.5684652 L32.8004561,34.364305 C33.2192473,34.5554591 34.2589225,35.0783918 33.6824559,35.9061701 C34.4941783,36.330904 35.7206214,36.781856 36.7319221,37.643122 C37.1388608,37.9802635 37.5686666,38.3480325 37.9544144,38.7797976 C38.6887956,38.8937274 38.6102573,38.9517648 39.1546381,39.284616 C40.7548566,40.2614801 43.32136,42.1990008 44.8090388,43.5709247 C45.0651265,43.7198914 45.169525,43.8271475 45.3765262,43.9351185 C45.4087317,43.9968503 45.4178306,44.011032 45.4105275,44.0278354 C45.339412,44.206953 45.3421656,44.2120775 45.2779941,44.354728 C45.3583283,44.4431546 45.5079821,44.5257418 45.5974152,44.6029661 C45.6809819,44.6289459 45.6809819,44.5890228 45.8244102,44.5539859 C46.0112979,44.727979 46.2424831,44.868246 46.3255709,44.8600231 C46.5789049,44.796027 46.5356849,44.8481057 46.74963,44.6099973 C46.8266119,44.5309854 46.955434,44.6109507 46.955434,44.6109507 C47.0357681,44.5171613 47.2086483,44.3299399 47.4388757,44.1947973 C47.6225309,44.0869454 47.9731998,44.0751472 47.9731998,44.0751472 C48.0906481,44.0761006 48.0684993,44.195989 48.0584426,44.2349587 C47.9259091,44.3031259 47.6446797,44.378086 47.4870044,44.4939225 C47.1433992,44.8477482 46.874142,45.3249184 46.874142,45.3249184 C47.5661413,45.2308906 47.9911582,45.4017852 48.5677445,45.3360015 C48.8821373,45.3178872 49.1144,45.3380275 49.4445962,45.1001574 C49.4445962,45.1001574 49.7619821,44.8752773 50.0464441,44.7559847 C50.3226452,44.6362155 50.584719,44.7000924 50.8277568,44.8759923 C50.9995594,45.0688148 51.1028804,45.0698874 50.8417644,45.3420794 C50.7474227,45.4479053 50.6106989,45.5660061 50.4371005,45.7370199 C50.1316869,46.0370985 49.7206776,46.4376402 49.2949424,46.768823 C48.8639394,47.1038193 48.3748706,47.4047321 48.0694571,47.5427349 C47.2990392,48.0936734 47.4807788,47.9495928 46.8752195,48.4956452 C46.7988362,48.5638123 46.5960253,48.6854883 46.4974932,48.750557 C46.258526,48.9067933 46.1840582,48.7765368 46.0282985,48.4905207 C46.0282985,48.4905207 45.957183,48.3837414 45.8394953,48.1556435 C45.7110324,47.9068095 45.6145356,47.6219852 45.6535653,47.6267521 C45.5100174,47.6087569 44.8641114,46.8548662 44.8623156,46.6929095 C44.7255918,46.6619245 44.14278,46.1001412 44.1219481,45.9928852 L43.6057023,45.5809028 C43.0149887,45.7031747 42.8795819,45.3380275 41.3195903,44.2361505 C41.1416818,44.2331711 40.866678,44.1373557 40.4725496,43.8464535 C39.7686977,43.2852661 38.0800039,42.0154738 37.793746,41.8704399 C37.4862972,41.7145611 37.1188671,41.5676203 36.893668,41.3825441 C36.5560489,41.3205739 36.3713162,41.2855369 36.2025067,41.2385826 C36.0299858,41.1916283 35.8730288,41.1308499 35.4362791,41.0725741 C34.7251241,40.9846242 33.98763,40.691696 33.2856936,40.3416838 C32.953103,40.1849708 32.663852,40.1050055 32.3777139,39.9827336 C31.7356391,39.7128059 31.1852722,39.4698114 30.7588186,39.3718509 C30.5961149,39.3557625 29.8225842,39.1248045 29.4168427,38.8889604 C29.2762879,38.8168605 29.1948762,38.7478591 29.10245,38.7268846 C28.8895824,38.6781427 28.7527389,38.7619216 28.656721,38.7940984 C28.1362848,39.0639069 27.6491317,39.2968909 27.1989729,39.5379786 C26.7800619,39.760952 26.3943142,39.9927442 25.9855796,40.227039 C25.6168326,40.4389293 25.1908579,40.638783 24.7530307,40.8468598 C24.7530307,40.8468598 23.5043191,41.469779 22.8223765,41.7119393 C22.2307051,42.1926847 21.0212627,43.0245148 20.28317,43.4364971 C19.9176554,43.6094177 19.2073385,44.0573904 18.8797762,44.157496 C18.6928885,44.307297 18.0269888,44.7802961 17.5057145,45.1703505 C17.1028464,45.4703099 16.7985104,45.7231958 16.7985104,45.7231958 C16.5645715,45.9321067 16.5804947,46.0311398 16.1356038,45.8429651 C16.0119298,45.9439049 15.9166303,46.0069476 15.8372539,46.064985 C15.5159172,46.2970156 15.4886203,46.2410041 15.371172,46.2349263 C15.1471701,46.4279871 15.1190352,46.3281199 14.9231683,46.5501398 C14.7945857,46.748206 14.9261613,46.7010133 14.6548689,46.7970671 C14.597761,46.8191141 14.5705838,46.887758 14.526406,46.9260127 C14.3083903,47.1047727 14.3075523,47.6099486 13.7852005,47.645939 C13.4827801,47.8608086 13.5601212,48.1201299 13.3291754,48.1088084 C13.343183,48.3316626 12.9203211,48.6567676 12.8440575,48.6558142 C12.1780381,48.884627 12.1317052,48.3969696 11.3321946,48.7608059 C11.2286342,48.8078794 11.0770647,48.9380167 10.8771272,48.9757947 C10.5256203,49.0416975 10.1006034,48.9726962 9.8415227,48.7728424 C9.43362621,48.4598931 9.05805495,47.8559225 9.05805495,47.8559225 C8.92839487,47.5509578 9.00370068,47.357897 9.40848437,47.0698549 C9.57717417,46.9629564 9.60842189,46.8829911 9.89168666,46.8638042 C10.0323613,46.8108912 9.99416961,46.8918099 10.2453486,46.8019532 C10.3910516,46.7499936 10.3910516,46.7870565 10.6842534,46.7620301 C10.7515377,46.7171017 10.8459992,46.7010133 10.9725465,46.6600177 C11.2045698,46.5838659 11.4307267,46.4990145 11.4307267,46.4990145 C11.4307267,46.4990145 11.4898699,46.4400237 11.712914,46.4611173 C11.9017172,46.3841313 12.0956686,46.2699632 12.1951585,46.2349263 C12.1698969,45.9372312 12.2021024,45.9511745 12.340622,45.8311669 C12.5133824,45.6830344 12.5445104,45.7072266 12.6732127,45.7989901 C12.7274472,45.768005 12.7535469,45.7571602 12.7475607,45.7119935 C12.7263697,45.556949 12.5928785,45.4840149 12.6331054,45.1422256 C12.5737228,45.0052954 12.4864447,44.8363076 12.5056004,44.7342952 C12.5337353,44.624179 12.5609124,44.5711468 12.6280771,44.5361099 C12.6995518,44.4983319 12.7225386,44.5493381 12.7607302,44.5921213 C12.8289724,44.6712525 12.8842844,44.9051898 12.8842844,44.9051898 C12.9083488,45.169278 12.9907182,45.5111864 13.2529118,45.3182447 C13.4074742,45.1621276 13.4376445,44.7463317 13.752995,44.8353542 L13.9780744,45.0300835 C14.1689129,44.8513234 14.1780119,44.8513234 14.2924672,44.7794619 C14.2924672,44.7794619 14.1137206,44.5993909 14.2704381,44.4593622 C14.3779494,44.3642618 14.5073701,44.2962139 14.7375975,44.0423746 C15.3692564,43.3474746 15.6937059,43.040484 16.3769655,42.4804883 C17.7400126,41.3644297 19.2909052,40.5818182 20.2763458,40.1927171 C20.5975627,39.7866934 20.9101597,39.5168849 21.62335,39.4485986 C22.4709893,38.0237617 24.0943144,36.7512285 24.467132,36.548157 C24.7703905,36.0011513 24.9019662,36.0593079 25.2987284,35.94943 C25.6130015,35.6984509 25.6843564,35.6984509 25.825031,35.4365078 C25.961635,34.895699 25.5098002,33.4507219 26.6636911,33.3777878 C26.9088839,33.0329001 26.8475857,33.1158447 27.1207938,32.7899056 C26.9360611,32.335855 26.8596778,31.9561686 26.8095138,31.6290377 C26.8004148,31.5910214 26.3514533,31.2760462 26.4788387,30.8650172 C26.2881198,30.6390645 25.9314648,30.1117224 25.8200026,29.864676 C25.7688809,29.8657485 25.7264989,29.8466808 25.6703488,29.8389345 C25.6121634,29.829639 25.5397309,29.8329758 25.458439,29.8259446 C25.2787347,30.2876223 25.0828677,30.321825 24.7633269,30.4237182 C24.1928464,31.6341622 23.9919511,32.1462502 22.3776053,33.146949 C21.7368474,33.8610358 21.5318816,34.6568756 21.5348746,34.6449583 C21.42449,34.8806832 21.4635197,35.2109126 21.5218248,35.3878851 C21.4374201,35.6498282 21.4594491,35.6759271 21.4594491,35.6759271 C21.4946477,35.774841 21.5861161,35.9059317 21.6985361,35.9336991 C21.8923677,35.9848245 22.0863191,35.9767207 22.0750651,36.1915903 C22.0490852,36.4605646 21.6944655,36.4165896 21.5267335,36.3865579 C20.8807078,36.2845455 21.0848356,35.865532 20.671791,36.0054415 C20.355363,36.2113731 20.2369569,36.8193956 19.7205913,36.7405029 C19.6522294,36.6955745 19.6733007,36.562577 19.719394,36.4665233 C19.7918265,36.316484 19.9202894,36.1925437 19.8440258,36.1362939 C19.5085617,36.2414048 18.8354786,36.4634248 18.8354786,36.4634248 C18.5190506,36.5493488 18.1724523,36.3923974 18.483852,36.1853933 C18.6285972,36.1293818 18.8354786,36.0593079 19.0907282,35.896517 C19.0907282,35.896517 19.2220644,35.7183528 18.9701671,35.8076137 C18.694804,35.9055742 18.2890626,35.9664718 17.9977763,35.9344142 C17.9977763,35.9344142 17.3940129,35.8555214 17.3166718,35.8083287 C17.2382532,35.7612553 17.167018,35.575464 17.355941,35.5765365 C17.595028,35.5785625 18.1936433,35.5084885 18.6576899,35.3855016 C18.8818115,35.298505 19.3076664,35.0476451 19.5467534,34.9295443 C19.5467534,34.9295443 19.8058341,34.5536715 19.948544,34.4796648 C20.1865535,34.2067578 20.3874488,34.0456354 20.5982811,33.7666505 C20.8043245,33.343585 21.0171921,32.6738307 21.6991347,31.6369032 C22.014605,31.159018 22.4064586,30.6021208 22.8995979,30.1044528 C22.8995979,30.1044528 23.0272227,29.3076596 23.669058,28.7407519 C23.8108101,28.4086157 24.025713,28.017727 24.2377426,27.6557975 C24.3201121,27.5168413 24.3982912,27.3958804 24.4767098,27.2638363 C24.6756896,26.9529129 24.8846063,26.3739687 25.6600526,26.2829202 C25.6600526,26.2829202 25.9914461,26.0389723 26.1190709,25.8658134 C26.3180506,25.6969448 26.2727953,25.4340483 26.4344214,25.2488529 C26.187313,25.0089569 25.5555344,24.5580048 25.4941165,23.9310337 C25.4288674,23.2661655 25.6668768,22.7191597 26.0707027,22.3143278 C26.5187065,21.868381 26.9908942,21.6455268 27.5643677,21.679372 C28.2805511,21.7853172 28.4160776,22.0212804 28.6440303,22.2553369 C28.8630038,22.4772378 28.9445352,22.3344681 29.0368417,22.594266 C29.6376121,22.7533625 29.6044488,22.6834077 29.5993007,23.1233958 C29.6917269,23.2472169 29.8464091,23.3623384 29.8443738,23.6192762 C30.0463466,23.2022886 30.0863341,23.1254217 30.6258063,22.6664851 C30.7534311,22.2934724 30.8399908,21.9266568 30.9521713,21.5536441 C31.0571685,21.2087564 31.1879061,20.8537389 31.2893115,20.5866714 C31.1819199,19.8327806 31.4025695,19.7078869 31.6970883,19.0469514 C31.6450087,18.9559029 31.6560233,18.9300423 31.6780523,18.7809564 C31.7926273,18.3440669 31.9713738,17.766076 32.0779273,17.3891306 C32.0779273,17.3891306 32.1130062,17.2392105 32.2687659,17.2281274 C32.4034544,16.7511956 32.6054272,15.8632348 32.6393088,15.6823296 C32.7780678,15.1834698 32.6886347,15.0233008 32.5822009,14.7424092 C32.5479601,14.6502882 32.564003,14.5193166 32.5048598,14.4173042 C32.3371278,14.126402 32.1564657,13.7483841 32.033989,13.4783372 C31.9544929,13.3064892 31.8289034,12.6584244 31.8289034,12.6584244 C31.7219907,12.3272416 31.8154944,12.6581861 31.8154944,12.6581861" id="path-1"></path>
    </defs>
    <g id="graphics/brands/company/jordanbrand" stroke="none" stroke-width="1" fill="none" fill-rule="evenodd">
        <mask id="mask-2" fill="white">
            <use xlink:href="#path-1"></use>
        </mask>
        <use id="Fill-1" fill="#0A0B09" xlink:href="#path-1"></use>
        <g id="colors/black" mask="url(#mask-2)" fill="#0A0B09">
            <rect id="Rectangle" x="0" y="0" width="60" height="60"></rect>
        </g>
    </g>
</svg>