<?xml version="1.0" encoding="UTF-8"?>
<svg width="60px" height="60px" viewBox="0 0 60 60" version="1.1" xmlns="http://www.w3.org/2000/svg" xmlns:xlink="http://www.w3.org/1999/xlink">
    <!-- Generator: Sketch 59 (86127) - https://sketch.com -->
    <title>graphics/brands/company/mitchellNess</title>
    <desc>Created with Sketch.</desc>
    <defs>
        <path d="M43.5190738,24 C44.3985576,24 44.9910799,24.2271386 44.9910799,24.8853245 C44.9910799,25.3938053 44.6669197,25.9616519 44.5021826,26.2765487 C44.8582274,25.8842183 46.4365155,24.2503687 47.0609224,24.2503687 C47.5391915,24.2503687 47.935092,24.5497788 47.935092,25.045354 C47.935092,26.1836283 45.52249,28.7621681 45.52249,29.4719764 C45.52249,29.6681416 45.5968875,29.7429941 45.8094515,29.7429941 C46.3142911,29.7429941 47.2017461,28.6873156 47.4355665,28.3466077 C47.5019928,28.2485251 47.5338774,28.1297935 47.5896755,28.0291298 C47.9536914,27.3786873 48.8438034,26.4830383 49.6356045,26.4830383 C50.0793319,26.4830383 50.2626684,26.7411504 50.2626684,27.0973451 C50.2626684,27.9671829 48.9899412,28.6124631 48.1529702,28.7647493 C48.1317138,28.8473451 48.1184285,28.9325221 48.1184285,29.0202802 C48.1184285,29.3300147 48.3097362,29.464233 48.6179541,29.464233 C49.6993737,29.464233 51.4530271,27.0224926 51.8861264,26.1784661 C51.9552097,26.0468289 52.2527994,25.2441003 52.3856519,25.2441003 C52.4494211,25.2441003 52.5371038,25.2724926 52.5371038,25.3525074 C52.5371038,25.6157817 52.4148795,25.8506637 52.2926552,26.0778024 C52.6858987,26.390118 53.0977415,26.9269912 53.0977415,27.435472 C53.0977415,27.5980826 53.0924274,27.7606932 53.0419434,27.9181416 C53.9453407,27.3657817 54.5192636,26.7075959 55.1622699,25.8971239 C55.3482634,25.664823 55.8956159,24.619469 56.0789524,24.619469 C56.1533498,24.619469 56.2330613,24.6530236 56.2330613,24.7382006 C56.2330613,24.9575959 56.0018979,25.2931416 55.8743595,25.4764012 C56.323401,25.8661504 56.6103625,26.5011062 56.6103625,27.0844395 C56.6103625,27.3115782 56.5731638,27.5516224 56.4748529,27.7581121 C56.7538432,27.5980826 57.2905675,27.3606195 57.473904,27.3606195 C57.7024103,27.3606195 58,27.585177 58,27.9413717 C58,28.2511062 57.8326058,28.4756637 57.6811539,28.6692478 C56.6741317,29.975295 54.0808503,30.8141593 52.5530461,31.2374631 C48.5860695,32.3421829 44.4596698,33.0003687 40.3598406,33.3952802 C34.7906624,33.9321534 29.2161701,34.4819322 23.6443348,34.9568584 C21.4788385,35.1426991 19.2920858,35.3311209 17.1239324,35.5556785 C15.5350161,35.7208702 13.9514139,35.8938053 12.381097,36.1751475 C10.7842095,36.4590708 9.05712659,36.7481563 7.52932245,37.2850295 C7.29018789,37.3702065 6.11842854,38 6.04668818,38 C5.96431961,38 5.84209527,37.9690265 5.84209527,37.8683628 C5.84209527,37.615413 7.19187702,36.9262537 7.39381287,36.8359145 C8.76219396,36.2267699 10.5503891,35.8499263 12.0250522,35.6176254 C15.1869425,35.1246313 18.3435187,34.6600295 21.5346366,34.3089971 C26.0223951,33.8134218 30.5314101,33.495944 34.9925982,32.9977876 C37.6390207,32.7035398 40.2960714,32.4789823 42.9451509,32.2079646 C44.4251281,32.0582596 45.9077624,31.9266224 47.3771114,31.6891593 C49.7312583,31.3071534 52.9861454,30.7599558 55.1542987,29.8746313 C55.7388499,29.6371681 57.7210097,28.6511799 57.7210097,28.0239676 C57.7210097,27.8278024 57.6466123,27.6910029 57.4154489,27.6910029 C57.0992598,27.6910029 56.4828241,28.0084808 56.2304043,28.1943215 C56.113494,28.2820796 56.0231543,28.3827434 55.8956159,28.4627581 C55.4572025,28.7389381 54.9284494,28.8215339 54.4156386,28.8215339 C54.0250522,28.8215339 53.5494401,28.4859882 53.5494401,28.0807522 C53.5494401,27.9852507 53.5813247,27.9103982 53.650408,27.840708 L53.649,27.841 L53.527546,27.9470501 C53.3974568,28.0576254 53.2482369,28.1765634 53.102843,28.2648378 L52.9595749,28.3414454 C52.6115012,28.8731563 52.021636,29.3584071 51.338774,29.3584071 C50.9455305,29.3584071 50.4672613,29.0280236 50.4672613,28.6176254 C50.4672613,28.5711652 50.4858607,28.5272861 50.5071171,28.4885693 C50.0421332,29.0435103 49.298159,29.7429941 48.5780983,29.7429941 C47.9749478,29.7429941 47.3159992,29.6810472 47.3159992,28.8886431 C46.9944961,29.2964602 46.30632,30.1017699 45.7270829,30.1017699 C45.1717593,30.1017699 44.6376922,29.9262537 44.6376922,29.2938791 C44.6376922,28.5298673 47.1565762,25.5719027 47.1565762,24.9266224 C47.1565762,24.7924041 47.1034352,24.5962389 46.9280698,24.5962389 C46.5241981,24.5962389 44.9193395,26.240413 44.6456633,26.5553097 C44.4065288,26.8314897 44.1833365,27.1205752 43.9840577,27.4277286 C43.529702,28.1220501 42.2835453,30.359882 42.2835453,30.359882 C42.2224331,30.4631268 42.1374075,30.5818584 42.0231543,30.6076696 C41.847789,30.6463864 41.3509205,30.7238201 41.1410135,30.7238201 C41.1011577,30.7238201 41.0320744,30.7238201 41.0320744,30.6567109 C41.0320744,30.6025074 41.0241032,30.594764 41.0825584,30.5018437 L41.0825584,30.5018437 L44.20725,25.3344395 C44.2843044,25.2105457 44.419814,24.9730826 44.419814,24.8337021 C44.419814,24.3278024 43.840577,24.2916667 43.4367053,24.2916667 C42.2410325,24.2916667 40.1844752,25.7164454 40.1844752,26.8314897 C40.1844752,27.1902655 40.3996963,27.2676991 40.6600873,27.2676991 C41.6219396,27.2676991 42.4695388,25.6674041 42.5253369,25.6674041 C42.5917631,25.6674041 42.6475612,25.6957965 42.6475612,25.7732301 C42.6475612,26.0571534 41.536914,27.5232301 40.6574303,27.5232301 C40.2854432,27.5232301 39.9240843,27.3322271 39.9240843,26.880531 C39.9240843,25.5435103 42.1161511,24 43.5190738,24 Z M33.1379768,26.0984513 C33.1432909,26.1397493 33.1087493,26.2223451 33.0582653,26.3204277 L30.9990511,30.1482301 C30.8555703,30.4140855 30.2338205,31.5471976 30.2338205,31.8337021 C30.2338205,31.9188791 30.2949326,31.9524336 30.3746441,31.9524336 C30.7572594,31.9524336 31.5118618,31.1651917 31.7111406,30.894174 C31.8094515,30.7599558 32.2850636,30.1404867 32.3461757,30.1404867 C32.4046309,30.1404867 32.4710571,30.2153392 32.4710571,30.2798673 C32.4710571,30.3547198 31.9981021,30.9870944 31.8732207,31.1316372 C31.4560638,31.6220501 30.9857658,32.2570059 30.260391,32.2570059 C29.8166635,32.2570059 29.4978174,31.9782448 29.4978174,31.5420354 C29.4978174,31.425885 29.5323591,31.3252212 29.5722148,31.1858407 C29.1391156,31.7485251 28.2091478,32.6544985 27.5687986,32.6544985 C27.1569558,32.6544985 26.8195103,32.45059 26.8195103,31.8698378 C26.3226419,32.5331858 25.6610362,33.0106932 25.0499146,33.0106932 C24.4175365,33.0106932 23.8223572,32.964233 23.7878155,32.215708 C23.4503701,32.664823 22.8445625,33.3152655 22.1404441,33.3152655 C21.8109698,33.3152655 21.3513001,33.2094395 21.3513001,32.9048673 C21.3513001,32.6028761 22.3237806,31.3148968 22.3237806,30.894174 C22.3237806,30.8348083 22.2281268,30.765118 22.1723287,30.765118 C21.7604859,30.765118 20.825204,31.8388643 20.6232682,32.1511799 C20.3804546,32.5204788 20.1150011,33.0503264 20.0755989,33.1296562 L20.0706016,33.1397493 C20.0440311,33.1965339 19.985576,33.304941 19.9271209,33.3204277 C19.7650408,33.3643068 19.1406339,33.5036873 19.1406339,33.4365782 C19.1406339,33.4081858 19.1512621,33.3436578 19.2044031,33.2378319 L19.4010249,32.8429204 C18.9121275,33.3230088 18.1309546,33.859882 17.4055798,33.859882 C16.9538812,33.859882 16.3932435,33.6224189 16.2896185,33.1500737 C15.9521731,33.5630531 15.3596508,34.2831858 14.7644714,34.2831858 C14.2994876,34.2831858 13.9593851,33.9063422 13.9593851,33.4649705 C13.5448852,33.9734513 13.0958436,34.6135693 12.2721579,34.6135693 C11.754033,34.6135693 11.4776998,34.3580383 11.5095844,33.8495575 C11.1960524,34.2186578 10.5902448,34.9181416 9.84361359,34.9181416 C9.47162649,34.9181416 8.93490226,34.7400442 8.93490226,34.1102507 C8.93490226,33.8727876 9.06775479,33.475295 9.26171949,33.0545723 L10.1146328,31.2245575 C10.2607705,30.914823 10.3776808,30.6825221 10.3776808,30.5250737 C10.3776808,30.4140855 10.2713987,30.3676254 10.181059,30.3676254 C9.65762004,30.3676254 8.45131904,31.6246313 7.96773581,32.6777286 L6.88631619,35.0265487 C6.81457582,35.1814159 6.74283545,35.2407817 6.64186753,35.2536873 C6.55418485,35.2665929 6.11842854,35.3259587 5.87397988,35.3259587 C5.78629721,35.3259587 5.81286772,35.2433628 5.81286772,35.1865782 C5.81286772,35.1272124 5.87132283,35.0162242 5.91383564,34.925885 L7.41506927,31.6736726 C7.5107231,31.4671829 7.86942494,30.7238201 7.86942494,30.6025074 C7.86942494,30.4605457 7.78439932,30.2592183 7.54526476,30.2592183 C6.87303094,30.2592183 5.90852154,31.9162979 5.69064339,32.3912242 L4.3807174,35.2485251 C4.31694819,35.3879056 4.23723667,35.5685841 4.08312773,35.5918142 C3.90776238,35.6176254 3.73771114,35.6537611 3.5623458,35.6537611 C3.48529133,35.6537611 3.23818561,35.6821534 3.23818561,35.5814897 C3.23818561,35.5324484 3.26741317,35.4679204 3.28866958,35.4266224 L5.24957297,31.1651917 C5.36382615,30.9199853 5.47276523,30.6618732 5.47276523,30.5250737 C5.47276523,29.9185103 5.10343519,29.7042773 4.40463086,29.7042773 C3.46934902,29.7042773 2.31353198,31.0438791 2.31353198,31.9524336 L2.31350004,32.1150617 C2.31730894,32.3458093 2.35604479,32.5099558 2.66691972,32.5099558 C2.9857658,32.5099558 3.55437464,31.9059735 3.70316948,31.6710914 C3.88384893,31.3871681 4.04858607,31.0800147 4.11235529,31.0800147 C4.19472386,31.0800147 4.21332321,31.2064897 4.21332321,31.2787611 C4.21332321,31.6685103 3.16113114,32.8532448 2.64034921,32.8532448 C2.12753843,32.8532448 2,32.45059 2,31.9524336 C2,30.6825221 3.32586829,29.3867994 4.40994496,29.3867994 C5.13797685,29.3867994 6.20876827,29.6733038 6.20876827,30.550885 C6.20876827,30.8167404 6.17422661,30.9122419 6.08654394,31.1600295 C6.35490605,30.7109145 7.00056937,29.9288348 7.61169102,29.9288348 C8.10058835,29.9288348 8.56557221,30.1533923 8.56557221,30.6825221 C8.56557221,30.9070796 8.46991839,31.1238938 8.39020687,31.3303835 C8.70905295,30.9380531 9.55399507,30.0269174 10.2979693,30.0269174 C10.5902448,30.0269174 11.0871133,30.2695428 11.0871133,30.7625369 C11.0871133,31.1471239 10.8665781,31.7794985 10.7151262,32.109882 L10.1146328,33.4185103 C9.96318087,33.7514749 9.86752704,34.0792773 9.86752704,34.2031711 C9.86752704,34.3580383 9.89941165,34.5464602 10.1040046,34.5464602 C10.5902448,34.5464602 11.6769786,33.2275074 11.8629721,32.9126106 L12.4315809,31.9343658 C12.4767508,31.8595133 12.5724046,31.7743363 12.6654014,31.769174 C12.8487379,31.7588496 13.0373885,31.6556047 13.2180679,31.6556047 C13.2632378,31.6556047 13.2844942,31.6556047 13.2844942,31.704646 C13.2844942,31.7278761 13.1835263,31.9111357 13.1356994,31.9911504 L12.5591194,33.0752212 C12.3864111,33.3746313 12.1897893,33.7592183 12.1897893,34.0173304 C12.1897893,34.2083333 12.381097,34.3219027 12.5564623,34.3219027 C13.013475,34.3219027 14.0204972,33.0545723 14.217119,32.7061209 C14.217119,32.7061209 15.1045739,31.1445428 15.4340482,30.5405605 L13.9062441,30.9070796 L13.90093,30.8399705 C13.9301575,30.7728614 14.007212,30.6360619 14.0789524,30.5999263 L15.5987853,30.2411504 L16.4888973,28.6924779 C16.5526665,28.5840708 16.6669197,28.4627581 16.7120896,28.460177 C16.9405959,28.439528 17.1930158,28.3930678 17.4215221,28.3930678 C17.4640349,28.3930678 17.4720061,28.4240413 17.4720061,28.460177 C17.4720061,28.4963127 17.3896375,28.67441 17.3364965,28.7724926 L16.6562915,29.9985251 L18.3302334,29.5932891 L18.3275764,29.6500737 L18.2133232,29.8462389 L18.1708104,29.9004425 L16.4835832,30.3082596 L15.1736572,32.6028761 C15.0620611,32.7964602 14.8043272,33.3565634 14.8043272,33.5682153 C14.8043272,33.6430678 14.8335548,33.92441 14.9557791,33.92441 C15.4553046,33.92441 16.0079712,33.1165192 16.5101537,32.3525074 C16.9857658,31.6272124 17.7722528,30.9612832 18.6862782,30.9612832 C19.0104384,30.9612832 19.5179351,31.0800147 19.5179351,31.4775074 C19.5179351,31.769174 19.3877396,31.9137168 19.1379768,31.9137168 C18.8085026,31.9137168 19.0821788,31.2787611 18.6065667,31.2787611 C18.1150123,31.2787611 17.1877017,32.6338496 17.1877017,33.1707227 C17.1877017,33.4081858 17.4241792,33.5682153 17.6526855,33.5682153 C18.1867527,33.5682153 19.4010249,32.8429204 19.9882331,31.6685103 C20.8331752,29.9804572 22.451319,27.0018437 22.451319,27.0018437 C22.4805466,26.945059 22.501803,26.8856932 22.5629152,26.8521386 C22.6160562,26.8211652 23.1554375,26.7411504 23.2590624,26.7411504 C23.2962612,26.7411504 23.3706586,26.7359882 23.3786297,26.8005162 C23.3839438,26.8443953 23.3494022,26.9269912 23.3015753,27.0224926 L21.0032264,31.3716814 C21.3114443,31.020649 21.9013095,30.4321534 22.4194344,30.4321534 C22.762194,30.4321534 23.1022965,30.6205752 23.1022965,31 C23.1022965,31.2219764 22.1404441,32.6957965 22.1404441,32.8274336 C22.1404441,32.9229351 22.2228127,32.984882 22.2972101,32.984882 C22.91896,32.984882 23.6337066,32.1227876 23.9047258,31.6246313 C24.3245398,30.8528761 24.8745493,29.9778761 25.8656292,29.9778761 C26.3066996,29.9778761 26.4926931,30.2256637 26.4926931,30.6308997 C26.4926931,30.7831858 26.4182957,30.9561209 26.3465553,31.0877581 C25.9798823,31.7485251 25.2226229,32.0763274 24.4892769,32.1924779 C24.4786487,32.2441003 24.4680205,32.300885 24.4680205,32.3576696 C24.4680205,32.6957965 24.8160941,32.7345133 25.0897704,32.7345133 C26.2402733,32.7345133 27.0267603,31.1238938 27.536914,30.2179204 L29.5350161,26.6611357 C29.5669007,26.604351 29.5881571,26.5449853 29.6492693,26.5114307 C29.7024103,26.4804572 30.2417916,26.4004425 30.3454166,26.4004425 C30.3826153,26.4004425 30.4570127,26.3952802 30.4649839,26.4598083 C30.470298,26.5036873 30.4357563,26.5862832 30.3852723,26.6817847 L28.3048017,30.5483038 C28.163978,30.8141593 27.5422281,31.9446903 27.5422281,32.2311947 C27.5422281,32.3266962 27.5953691,32.3499263 27.6830518,32.3499263 C28.4535965,32.3499263 29.7741507,30.6308997 30.2311634,29.8204277 L32.2080091,26.2997788 C32.2398937,26.2429941 32.2584931,26.1836283 32.3196052,26.1474926 C32.3754033,26.1191003 32.9121275,26.0364903 33.0184096,26.0364903 C33.0556083,26.0364903 33.1300057,26.0339233 33.1379768,26.0984513 Z M25.7992029,30.2592183 C25.3767318,30.2592183 24.6805846,31.3303835 24.545075,31.9524336 C25.59461,31.5962389 26.1924464,31.105826 26.1924464,30.5637906 C26.1924464,30.3521386 26.0569368,30.2592183 25.7992029,30.2592183 Z M36.294553,25.9539086 C37.0704118,25.9539086 37.3175176,26.6533923 37.3175176,27.050885 C37.3175176,27.8949115 36.6904536,28.545354 36.0075916,29.0899705 C36.2042133,29.3119469 36.4300626,29.5106932 36.6745113,29.675885 C37.1873221,29.035767 37.654963,28.4343658 38.024293,28.4343658 C38.1624597,28.4343658 38.2713987,28.5608407 38.2713987,28.7466814 C38.2713987,28.929941 38.1332321,29.0306047 38.0668058,29.0306047 C37.9977225,29.0306047 37.9419245,28.9170354 37.8622129,28.9170354 C37.6177643,29.079646 37.3254887,29.4513274 36.9960144,29.869469 C37.3334599,30.0424041 37.6948188,30.1482301 38.0402353,30.1482301 C38.7470108,30.1482301 38.8958057,29.869469 38.9781742,29.869469 C39.0100588,29.869469 39.0871133,29.9598083 39.0871133,30.0036873 C39.0871133,30.0269174 39.0499146,30.1198378 39.0047447,30.1611357 C38.8426646,30.2798673 38.4813058,30.4915192 37.8276713,30.4915192 C37.4769406,30.4915192 37.0969823,30.3831121 36.7303094,30.1972714 C36.1802999,30.870944 35.5426077,31.5368732 34.8517745,31.5368732 C34.2911368,31.5368732 33.8553805,31.3252212 33.8553805,30.7960914 C33.8553805,30.0862832 34.6046688,29.5390855 35.3406719,28.9815634 C35.0723097,28.5866519 34.9049155,28.1581858 34.9049155,27.7400442 C34.9049155,26.7463127 35.5186942,25.9539086 36.294553,25.9539086 Z M35.6462327,29.3661504 C34.9341431,29.8952802 34.2645663,30.3263274 34.2645663,30.7573746 C34.2645663,30.914823 34.3469349,31.1935841 34.822547,31.1935841 C35.3513001,31.1935841 35.8933384,30.6283186 36.4061492,30.0088496 C36.1271589,29.8307522 35.8694249,29.6113569 35.6462327,29.3661504 Z M14.0364396,29.2887168 C14.2968305,29.2887168 14.3845132,29.4564897 14.3845132,29.6681416 C14.3845132,29.8384956 14.110837,30.0475664 13.8717024,30.0475664 C13.6139685,30.0475664 13.5236288,29.8978614 13.5236288,29.6681416 C13.5236288,29.4771386 13.799962,29.2887168 14.0364396,29.2887168 Z M51.9658379,26.6327434 C51.5539951,27.2470501 51.0624407,27.8174779 50.5894857,28.3879056 C50.6877965,28.3001475 50.8233061,28.2356195 50.9295882,28.2356195 C51.0677548,28.2356195 51.1766939,28.3259587 51.1766939,28.4188791 C51.1766939,28.5530973 50.8073638,28.5530973 50.8073638,28.7234513 C50.8073638,28.8963864 51.0571266,28.9893068 51.394572,28.9893068 C52.0535206,28.9893068 52.4573923,28.1014012 52.4573923,27.6393805 C52.4573923,27.265118 52.1970013,26.8831121 51.9658379,26.6327434 Z M36.1723287,26.3230088 C35.7950275,26.3230088 35.3273866,26.9889381 35.3273866,27.5412979 C35.3273866,27.925885 35.4708673,28.3259587 35.7100019,28.695059 C36.2786107,28.2407817 36.7568799,27.7581121 36.7568799,27.1567109 C36.7568799,26.604351 36.5496299,26.3230088 36.1723287,26.3230088 Z M49.5691782,26.7669617 C49.1467072,26.7669617 48.3841336,27.8510324 48.248624,28.4730826 C49.295502,28.1143068 49.9650788,27.6135693 49.9650788,27.0715339 C49.9650788,26.8573009 49.8269121,26.7669617 49.5691782,26.7669617 Z M55.4465743,26.0339233 C54.9098501,26.6585546 54.3385842,27.2315634 53.7194914,27.7813422 C53.8364016,27.6935841 53.9931676,27.6342183 54.1100778,27.6393805 C54.2588727,27.6471239 54.3651547,27.7477876 54.3545265,27.8432891 C54.3385842,27.9800885 53.9347125,27.9620206 53.9134561,28.140118 C53.8921997,28.3182153 54.1499336,28.4421091 54.5219207,28.4421091 C55.2605808,28.4421091 55.8557601,27.585177 55.8557601,27.0973451 C55.8557601,26.8005162 55.6963371,26.2791298 55.4465743,26.0339233 Z" id="path-1"></path>
    </defs>
    <g id="graphics/brands/company/mitchellNess" stroke="none" stroke-width="1" fill="none" fill-rule="evenodd">
        <mask id="mask-2" fill="white">
            <use xlink:href="#path-1"></use>
        </mask>
        <use id="Combined-Shape" fill="#FFFFFF" fill-rule="nonzero" xlink:href="#path-1"></use>
        <g id="colors/black" mask="url(#mask-2)" fill="#0A0B09">
            <rect id="Rectangle" x="0" y="0" width="60" height="60"></rect>
        </g>
    </g>
</svg>