<?xml version="1.0" encoding="utf-8"?>
<!-- Generator: Adobe Illustrator 26.0.0, SVG Export Plug-In . SVG Version: 6.00 Build 0)  -->
<svg version="1.1" id="Capa_1" xmlns="http://www.w3.org/2000/svg" xmlns:xlink="http://www.w3.org/1999/xlink" x="0px" y="0px"
	 viewBox="0 0 1000 1000" style="enable-background:new 0 0 1000 1000;" xml:space="preserve">
<style type="text/css">
	.st0{fill:#FFFFFF;}
</style>
<path class="st0" d="M86,34.83c-34.11,8.37-64.34,37.99-73.12,71.69c-3.47,13.89-3.88,38.6-0.82,52.08
	c5.31,23.49,23.28,48,45.14,62.09c11.23,7.15,27.37,13.48,34.52,13.48c2.25,0,4.49,1.23,4.9,2.45
	c0.61,2.25,27.98,217.53,71.69,565.37c6.13,48.82,12.46,93.34,14.3,99.06c8.78,28.39,38.19,55.35,69.04,63.52
	c8.58,2.25,53.72,2.86,250.62,2.86c261.44,0,248.17,0.61,271.45-11.23c20.63-10.42,41.05-34.31,47.8-55.35
	c1.84-5.52,21.24-152.58,43.1-326.6c22.06-174.23,40.65-321.49,41.46-327.62l1.43-10.83l11.23-3.47
	c32.88-10.21,60.25-38.81,68.63-71.9c4.49-17.57,3.06-47.39-3.06-63.52c-9.6-25.12-33.29-48.82-59.03-59.23l-11.64-4.7l-408.51-0.41
	C182.82,32.38,94.38,32.79,86,34.83z M914.45,96.93c11.23,5.92,14.5,14.5,14.5,37.17s-3.27,31.25-14.5,37.17
	c-6.54,3.47-23.69,3.68-414.02,3.68c-399.52,0-407.28,0-414.84-4.08c-11.23-5.72-14.5-13.89-14.5-37.17
	c0-22.26,3.27-30.84,14.5-36.77c6.54-3.47,23.69-3.68,414.43-3.68S907.92,93.46,914.45,96.93z M424.25,243.79
	c-3.68,4.29-30.02,32.88-58.62,63.52l-52.08,55.76l-5.52-5.72c-3.06-3.06-22.88-24.1-43.91-46.57
	c-21.24-22.47-45.96-48.41-54.94-57.8l-16.54-16.75h119.28H431L424.25,243.79z M805.18,240.72c-2.04,2.45-29,31.05-59.44,63.32
	l-55.76,58.62l-54.54-58.62c-30.23-32.27-56.58-60.87-58.62-63.32l-3.88-4.49H691h118.06L805.18,240.72z M575.39,328.75
	c39.62,42.49,71.69,78.03,71.28,79.05c-1.01,2.66-143.17,152.17-144.81,152.17c-2.65,0-144.82-151.15-144.41-153.39
	c0.82-2.86,143.18-156.05,144.82-155.44C502.88,251.34,535.77,286.27,575.39,328.75z M221.02,353.67
	c27.57,29.21,50.04,53.72,49.84,54.54c-0.82,1.84-78.02,84.97-79.25,85.17c-0.61,0.2-6.54-42.69-13.07-95.39
	c-6.54-52.49-12.26-97.22-12.87-99.47C164.44,293.42,159.53,288.52,221.02,353.67z M826.22,395.14
	c-6.95,54.13-13.07,98.25-14.09,98.04c-2.04-0.82-79.25-84.15-79.25-85.79c0-1.63,104.58-112.34,105.39-111.52
	C838.47,296.28,833.16,340.81,826.22,395.14z M387.48,529.33c39.42,41.46,71.69,75.98,71.69,76.59
	c-0.2,1.43-140.94,149.92-142.98,150.74c-1.23,0.41-22.47-21.65-96.61-100.9l-9.6-10.42l-4.08-30.43
	c-2.25-16.75-4.08-33.29-4.08-36.56c0-5.31,7.97-14.91,55.56-65.97c30.43-32.88,56.17-59.44,56.99-59.23
	C315.18,453.55,348.27,487.66,387.48,529.33z M746.97,512.99c63.32,68.02,57.39,56.17,51.47,102.94
	c-3.88,29.21-3.88,29.21-11.85,37.79c-4.49,4.49-28.19,29.82-52.7,55.96c-24.51,26.15-45.14,47.18-46.16,46.98
	c-2.04-0.82-142.77-149.31-142.77-150.94c0-2.25,143.59-153.19,145.22-152.58C691,453.55,716.53,480.31,746.97,512.99z
	 M575.39,727.25l71.49,75.57l-14.91,15.73c-8.17,8.58-29.82,31.87-48.41,51.68l-33.5,35.95h-48l-48-0.2l-47.59-50.86
	c-26.14-27.98-47.59-51.47-47.8-52.29c-0.2-2.04,141.96-152.17,143.79-151.56C503.29,651.68,535.97,685.79,575.39,727.25z
	 M248.59,775.46l25.12,26.55l-19,20.42c-10.42,11.23-19.2,20.22-19.4,19.81c-0.41-0.21-3.06-19.4-5.92-42.28
	c-2.86-23.08-5.72-43.91-6.13-46.57c-0.61-2.45-0.82-4.49-0.41-4.49C223.26,748.9,234.9,760.75,248.59,775.46z M775.56,794.86
	c-3.27,24.71-6.13,45.75-6.54,46.57c-0.21,1.02-8.99-7.56-19.61-18.79l-19-20.63l25.12-26.55c13.89-14.5,25.33-26.14,25.53-25.94
	C781.28,749.72,778.83,770.15,775.56,794.86z M369.3,904.54c0,1.02-24.51,1.63-54.33,1.63c-42.69,0-53.92-0.61-52.7-2.66
	c0.82-1.23,13.07-14.71,27.17-29.62l25.74-26.96l26.96,27.98C357.05,890.45,369.1,903.73,369.3,904.54z M741.66,903.32
	c1.43,2.45-7.35,2.86-52.7,2.86c-42.89,0-54.13-0.61-52.9-2.66c0.82-1.23,13.07-14.71,27.17-29.41l25.53-27.17l25.53,26.96
	C728.38,888.61,740.84,901.89,741.66,903.32z"/>
</svg>
