<?xml version="1.0" encoding="utf-8"?>
<!-- Generator: Adobe Illustrator 26.0.0, SVG Export Plug-In . SVG Version: 6.00 Build 0)  -->
<svg version="1.1" id="Capa_1" xmlns="http://www.w3.org/2000/svg" xmlns:xlink="http://www.w3.org/1999/xlink" x="0px" y="0px"
	 viewBox="0 0 500 115" style="enable-background:new 0 0 500 115;" xml:space="preserve">
<path d="M182.48,94.51c-4.72,0-8.93-1.15-12.64-3.44c-3.71-2.29-6.64-5.43-8.8-9.4c-2.16-3.98-3.24-8.49-3.24-13.55
	c0-5.06,1.08-9.56,3.24-13.5c2.16-3.94,5.09-7.04,8.8-9.3c3.71-2.26,7.92-3.39,12.64-3.39c3.77,0,7.08,0.71,9.91,2.12
	c2.83,1.42,5.12,3.4,6.88,5.97V20.49h12.94V93.3h-11.53l-1.42-7.18c-1.62,2.22-3.76,4.18-6.42,5.87
	C190.18,93.67,186.73,94.51,182.48,94.51z M185.21,83.19c4.18,0,7.6-1.4,10.26-4.2c2.66-2.8,3.99-6.39,3.99-10.77
	c0-4.38-1.33-7.97-3.99-10.77c-2.66-2.8-6.08-4.2-10.26-4.2c-4.11,0-7.52,1.38-10.21,4.15c-2.7,2.76-4.04,6.34-4.04,10.72
	c0,4.38,1.35,7.99,4.04,10.82C177.69,81.77,181.1,83.19,185.21,83.19z M225.36,93.3V43.14h11.53l1.21,9.4
	c1.82-3.24,4.3-5.81,7.43-7.74c3.13-1.92,6.83-2.88,11.07-2.88v13.65h-3.64c-2.83,0-5.36,0.44-7.58,1.31
	c-2.22,0.88-3.96,2.39-5.21,4.55c-1.25,2.16-1.87,5.16-1.87,9V93.3H225.36z M272.38,35.35c-2.36,0-4.3-0.71-5.81-2.12
	c-1.52-1.42-2.28-3.2-2.28-5.36c0-2.16,0.76-3.93,2.28-5.31c1.52-1.38,3.45-2.07,5.81-2.07c2.36,0,4.3,0.69,5.81,2.07
	c1.52,1.38,2.28,3.15,2.28,5.31c0,2.16-0.76,3.94-2.28,5.36C276.68,34.65,274.74,35.35,272.38,35.35z M265.91,93.3V43.14h12.94V93.3
	H265.91z M322.13,94.51c-3.78,0-7.08-0.71-9.91-2.12c-2.83-1.42-5.12-3.4-6.88-5.97l-1.42,6.88H292.4V20.49h12.94v29.83
	c1.62-2.23,3.76-4.18,6.42-5.87c2.66-1.68,6.12-2.53,10.36-2.53c4.72,0,8.93,1.15,12.64,3.44c3.71,2.29,6.64,5.43,8.8,9.4
	c2.16,3.98,3.24,8.49,3.24,13.55c0,5.06-1.08,9.56-3.24,13.5c-2.16,3.94-5.09,7.05-8.8,9.3C331.06,93.38,326.85,94.51,322.13,94.51z
	 M319.4,83.19c4.11,0,7.52-1.38,10.21-4.15c2.7-2.76,4.05-6.34,4.05-10.72c0-4.38-1.35-7.99-4.05-10.82
	c-2.7-2.83-6.1-4.25-10.21-4.25c-4.18,0-7.6,1.4-10.26,4.2c-2.66,2.8-3.99,6.39-3.99,10.77c0,4.38,1.33,7.97,3.99,10.77
	C311.8,81.79,315.22,83.19,319.4,83.19z M388.06,94.51c-3.78,0-7.08-0.71-9.91-2.12c-2.83-1.42-5.12-3.4-6.88-5.97l-1.42,6.88
	h-11.53V20.49h12.94v29.83c1.62-2.23,3.76-4.18,6.42-5.87c2.66-1.68,6.12-2.53,10.36-2.53c4.72,0,8.93,1.15,12.64,3.44
	c3.71,2.29,6.64,5.43,8.8,9.4c2.16,3.98,3.24,8.49,3.24,13.55c0,5.06-1.08,9.56-3.24,13.5c-2.16,3.94-5.09,7.05-8.8,9.3
	C396.99,93.38,392.78,94.51,388.06,94.51z M385.33,83.19c4.11,0,7.52-1.38,10.21-4.15c2.7-2.76,4.05-6.34,4.05-10.72
	c0-4.38-1.35-7.99-4.05-10.82c-2.7-2.83-6.1-4.25-10.21-4.25c-4.18,0-7.6,1.4-10.26,4.2c-2.66,2.8-3.99,6.39-3.99,10.77
	c0,4.38,1.33,7.97,3.99,10.77C377.73,81.79,381.15,83.19,385.33,83.19z M424.26,93.3V20.49h12.94V93.3H424.26z M474.82,94.51
	c-5.06,0-9.54-1.08-13.45-3.24c-3.91-2.16-6.98-5.19-9.2-9.1c-2.22-3.91-3.34-8.43-3.34-13.55c0-5.19,1.09-9.81,3.29-13.85
	c2.19-4.04,5.22-7.2,9.1-9.45c3.88-2.26,8.44-3.39,13.7-3.39c4.92,0,9.27,1.08,13.04,3.24c3.77,2.16,6.72,5.11,8.85,8.85
	c2.12,3.74,3.19,7.91,3.19,12.49c0,0.74-0.02,1.52-0.05,2.33c-0.03,0.81-0.09,1.65-0.15,2.53h-38.12c0.27,3.91,1.63,6.98,4.1,9.2
	c2.46,2.22,5.44,3.34,8.95,3.34c2.63,0,4.84-0.59,6.62-1.77c1.79-1.18,3.12-2.71,3.99-4.6h13.15c-0.94,3.17-2.51,6.05-4.7,8.65
	c-2.19,2.6-4.89,4.64-8.09,6.12C482.49,93.77,478.87,94.51,474.82,94.51z M474.92,52.44c-3.17,0-5.97,0.89-8.39,2.68
	c-2.43,1.79-3.98,4.5-4.65,8.14h24.98c-0.2-3.3-1.42-5.93-3.64-7.89C480.99,53.42,478.22,52.44,474.92,52.44z M98.5,18.24
	c-22.53-23.77-60.36-23.73-82.85,0c-20.87,22.02-20.86,56.5,0,78.51c22.54,23.77,60.37,23.72,82.85,0
	C119.37,74.74,119.37,40.26,98.5,18.24z M19.04,83.57c-4.23-6.16-6.89-13.2-7.77-20.59h13.96C24.53,70.21,22.44,77.17,19.04,83.57z
	 M11.27,52.03c0.87-7.38,3.52-14.42,7.77-20.59c3.4,6.39,5.5,13.36,6.2,20.59H11.27z M51.61,103.31
	c-9.47-1.12-18.07-5.13-24.9-11.11c5.44-8.88,8.68-18.83,9.52-29.22h15.38V103.31z M51.61,52.03H36.22
	c-0.84-10.39-4.08-20.34-9.52-29.22c6.83-5.98,15.43-9.99,24.9-11.11V52.03z M95.12,31.43c4.23,6.15,6.89,13.2,7.77,20.59H88.92
	C89.62,44.79,91.72,37.82,95.12,31.43z M62.55,11.69c9.47,1.12,18.07,5.13,24.9,11.11c-5.44,8.88-8.68,18.83-9.52,29.22H62.55V11.69
	z M62.55,103.31V62.97h15.38c0.84,10.39,4.08,20.34,9.52,29.22C80.62,98.18,72.02,102.18,62.55,103.31z M95.12,83.57
	c-3.4-6.39-5.5-13.36-6.2-20.59h13.96C102.01,70.36,99.35,77.4,95.12,83.57z"/>
</svg>
