<?xml version="1.0" encoding="utf-8"?>
<!-- Generator: Adobe Illustrator 26.0.0, SVG Export Plug-In . SVG Version: 6.00 Build 0)  -->
<svg version="1.1" id="Capa_1" xmlns="http://www.w3.org/2000/svg" xmlns:xlink="http://www.w3.org/1999/xlink" x="0px" y="0px"
	 viewBox="0 0 160 30" style="enable-background:new 0 0 160 30;" xml:space="preserve">
<style type="text/css">
	.st0{fill:#FFFFFF;}
</style>
<g>
	<g>
		<path class="st0" d="M0.03,18.53V0.82h11.74c1.65,0,3.14,0.11,4.48,0.33c1.33,0.22,2.44,0.54,3.33,0.96
			c0.89,0.42,1.65,0.89,2.29,1.4c0.63,0.52,1.12,1.1,1.45,1.75c0.33,0.65,0.58,1.29,0.73,1.92c0.15,0.63,0.23,1.3,0.23,2.01v0.71
			c0,0.84-0.1,1.63-0.29,2.37c-0.19,0.74-0.57,1.5-1.13,2.3c-0.56,0.79-1.29,1.47-2.18,2.02c-0.89,0.56-2.1,1.02-3.62,1.38
			c-1.52,0.37-3.28,0.55-5.26,0.55H0.03z M5.58,5.01v9.26h5.76c4.75,0,7.12-1.52,7.12-4.57V9.56c0-3.03-2.37-4.55-7.12-4.55H5.58z"
			/>
		<path class="st0" d="M34.01,12.25v6.29h-5.55V0.82h14.28c5.13,0,7.69,1.53,7.69,4.59V5.7c0,1.87-1.1,3.17-3.29,3.88
			c1,0.29,1.81,0.77,2.43,1.44c0.62,0.67,0.93,1.55,0.93,2.63v2.6c0,1.06,0.11,1.79,0.33,2.17v0.12H45.2
			c-0.17-0.22-0.26-0.6-0.26-1.12v-2.05c0-1.1-0.28-1.89-0.83-2.38c-0.56-0.49-1.51-0.74-2.86-0.74H34.01z M34.01,4.84v3.48h8.4
			c0.76,0,1.33-0.16,1.69-0.48c0.36-0.32,0.55-0.74,0.55-1.26V6.56c0-0.51-0.18-0.92-0.55-1.24C43.74,5,43.17,4.84,42.41,4.84H34.01
			z"/>
		<path class="st0" d="M60.53,0.82v17.71h-5.55V0.82H60.53z"/>
		<path class="st0" d="M65.53,18.53V0.82H80.7c2.35,0,4.02,0.38,5,1.13c0.98,0.75,1.48,1.73,1.48,2.92V5.2c0,0.54-0.1,1.03-0.3,1.46
			c-0.2,0.44-0.46,0.79-0.8,1.05c-0.33,0.26-0.64,0.46-0.9,0.61c-0.27,0.14-0.54,0.25-0.81,0.33c0.38,0.1,0.75,0.23,1.12,0.4
			c0.36,0.17,0.77,0.42,1.21,0.75c0.44,0.33,0.8,0.77,1.07,1.35c0.27,0.57,0.4,1.22,0.4,1.95v0.33c0,3.4-2.44,5.09-7.33,5.09H65.53z
			 M79.74,4.56h-8.67v2.88h8.67c1.29,0,1.93-0.48,1.93-1.43V5.96C81.67,5.03,81.03,4.56,79.74,4.56z M80.22,11.2h-9.14v3.48h9.14
			c0.83,0,1.4-0.17,1.71-0.52c0.32-0.35,0.48-0.75,0.48-1.21v-0.1C82.41,11.75,81.68,11.2,80.22,11.2z"/>
		<path class="st0" d="M92.22,18.53V0.82h15.17c2.35,0,4.02,0.38,5,1.13c0.98,0.75,1.48,1.73,1.48,2.92V5.2
			c0,0.54-0.1,1.03-0.3,1.46c-0.2,0.44-0.46,0.79-0.8,1.05c-0.33,0.26-0.64,0.46-0.9,0.61c-0.27,0.14-0.54,0.25-0.81,0.33
			c0.38,0.1,0.75,0.23,1.12,0.4c0.36,0.17,0.77,0.42,1.21,0.75c0.44,0.33,0.8,0.77,1.07,1.35c0.27,0.57,0.4,1.22,0.4,1.95v0.33
			c0,3.4-2.44,5.09-7.33,5.09H92.22z M106.43,4.56h-8.67v2.88h8.67c1.29,0,1.93-0.48,1.93-1.43V5.96
			C108.36,5.03,107.72,4.56,106.43,4.56z M106.91,11.2h-9.14v3.48h9.14c0.83,0,1.4-0.17,1.71-0.52c0.32-0.35,0.48-0.75,0.48-1.21
			v-0.1C109.1,11.75,108.37,11.2,106.91,11.2z"/>
		<path class="st0" d="M118.91,0.82h5.55v13.31h12.31v4.4h-17.86V0.82z"/>
		<path class="st0" d="M141.1,0.82h18.67v4.02h-13.19v2.62h12.88v4.05h-12.88v2.9H160v4.12h-18.9V0.82z"/>
	</g>
	<g>
		<path class="st0" d="M4.45,29.18H3.84c-0.65,0-1.23-0.06-1.71-0.17C1.64,28.9,1.26,28.77,1,28.61s-0.48-0.35-0.63-0.58
			c-0.16-0.23-0.26-0.43-0.3-0.61C0.02,27.23,0,27.04,0,26.83v-0.1h2.15c0.05,0.7,0.7,1.04,1.95,1.04h0.12
			c0.41,0,0.75-0.02,1.02-0.06c0.27-0.04,0.47-0.09,0.59-0.16c0.12-0.07,0.21-0.14,0.25-0.22c0.04-0.07,0.06-0.16,0.06-0.26
			c0-0.14-0.04-0.25-0.11-0.34c-0.07-0.08-0.24-0.15-0.49-0.22c-0.26-0.06-0.63-0.1-1.12-0.11L3.3,26.39
			c-2.14-0.06-3.21-0.7-3.21-1.93v-0.08c0-0.21,0.03-0.41,0.08-0.59c0.05-0.18,0.16-0.36,0.32-0.54c0.16-0.18,0.37-0.33,0.62-0.45
			c0.26-0.12,0.6-0.23,1.04-0.3c0.44-0.08,0.94-0.12,1.52-0.12h0.61c0.6,0,1.13,0.04,1.59,0.12c0.46,0.08,0.83,0.19,1.1,0.32
			c0.27,0.13,0.5,0.29,0.67,0.48c0.17,0.19,0.29,0.38,0.36,0.56c0.06,0.19,0.1,0.38,0.1,0.6v0.09H5.95
			c-0.01-0.07-0.03-0.13-0.05-0.18c-0.02-0.05-0.07-0.12-0.15-0.2c-0.08-0.08-0.18-0.15-0.3-0.2c-0.12-0.05-0.31-0.1-0.55-0.14
			c-0.24-0.04-0.53-0.06-0.85-0.06H3.91c-0.49,0-0.87,0.03-1.14,0.09c-0.27,0.06-0.43,0.13-0.48,0.19
			c-0.06,0.07-0.08,0.16-0.08,0.28c0,0.11,0.03,0.2,0.09,0.27c0.06,0.07,0.21,0.14,0.44,0.19c0.23,0.06,0.56,0.09,0.99,0.1l1.1,0.02
			c1.22,0.02,2.11,0.19,2.65,0.5c0.54,0.31,0.82,0.79,0.82,1.45v0.12c0,0.24-0.03,0.46-0.08,0.65c-0.05,0.19-0.16,0.39-0.33,0.59
			c-0.16,0.2-0.38,0.37-0.66,0.5c-0.27,0.14-0.65,0.25-1.12,0.33C5.64,29.14,5.09,29.18,4.45,29.18z"/>
		<path class="st0" d="M21.57,26.88h-2.87v2.19h-2.06v-6.57h4.93c2.04,0,3.07,0.71,3.07,2.14v0.09
			C24.63,26.16,23.61,26.88,21.57,26.88z M18.69,23.99v1.41h2.84c0.64,0,0.95-0.23,0.95-0.69v-0.03c0-0.47-0.32-0.7-0.95-0.7H18.69z
			"/>
		<path class="st0" d="M37.31,22.38h0.38c0.57,0,1.09,0.04,1.55,0.12c0.47,0.08,0.86,0.18,1.17,0.31c0.32,0.13,0.59,0.29,0.83,0.48
			c0.24,0.19,0.42,0.38,0.55,0.57c0.13,0.19,0.24,0.39,0.32,0.62c0.08,0.22,0.14,0.42,0.16,0.6c0.02,0.18,0.04,0.36,0.04,0.56v0.27
			c0,0.19-0.01,0.37-0.04,0.55c-0.02,0.18-0.08,0.38-0.16,0.61c-0.08,0.23-0.19,0.44-0.32,0.63c-0.13,0.19-0.31,0.38-0.55,0.57
			c-0.24,0.19-0.51,0.35-0.83,0.49c-0.31,0.13-0.7,0.24-1.17,0.32c-0.47,0.08-0.99,0.12-1.56,0.12h-0.38
			c-0.57,0-1.09-0.04-1.56-0.12c-0.47-0.08-0.86-0.19-1.18-0.32c-0.31-0.13-0.59-0.29-0.83-0.49c-0.24-0.19-0.42-0.38-0.56-0.57
			c-0.13-0.19-0.24-0.4-0.32-0.63c-0.08-0.23-0.13-0.43-0.15-0.61c-0.02-0.18-0.04-0.36-0.04-0.55v-0.27c0-0.19,0.01-0.38,0.04-0.55
			c0.02-0.17,0.08-0.37,0.15-0.6c0.08-0.23,0.19-0.43,0.32-0.62c0.13-0.19,0.32-0.38,0.55-0.57c0.24-0.19,0.51-0.35,0.83-0.48
			c0.32-0.13,0.71-0.23,1.18-0.31C36.22,22.42,36.74,22.38,37.31,22.38z M40.15,25.81v-0.12c0-0.16-0.02-0.32-0.06-0.47
			c-0.04-0.15-0.12-0.3-0.24-0.46c-0.12-0.16-0.27-0.29-0.46-0.41c-0.19-0.11-0.44-0.2-0.77-0.28c-0.32-0.07-0.7-0.11-1.13-0.11
			c-1.77,0-2.66,0.57-2.66,1.72v0.11c0,0.21,0.04,0.41,0.11,0.6c0.07,0.19,0.2,0.38,0.38,0.57c0.18,0.19,0.45,0.34,0.82,0.45
			c0.37,0.11,0.82,0.17,1.35,0.17c0.52,0,0.97-0.05,1.34-0.16c0.37-0.11,0.64-0.26,0.83-0.44c0.18-0.19,0.31-0.37,0.38-0.56
			C40.12,26.23,40.15,26.03,40.15,25.81z"/>
		<path class="st0" d="M52.74,26.73v2.33h-2.06v-6.57h5.3c1.9,0,2.85,0.57,2.85,1.71v0.11c0,0.7-0.41,1.18-1.22,1.44
			c0.37,0.11,0.67,0.28,0.9,0.53c0.23,0.25,0.34,0.58,0.34,0.98v0.96c0,0.39,0.04,0.66,0.12,0.8v0.04H56.9
			c-0.06-0.08-0.1-0.22-0.1-0.42v-0.76c0-0.41-0.1-0.7-0.31-0.88c-0.21-0.18-0.56-0.27-1.06-0.27H52.74z M52.74,23.99v1.29h3.12
			c0.28,0,0.49-0.06,0.63-0.18c0.14-0.12,0.2-0.27,0.2-0.47v-0.01c0-0.19-0.07-0.34-0.2-0.46c-0.14-0.12-0.34-0.18-0.63-0.18H52.74z
			"/>
		<path class="st0" d="M69.79,29.07v-5.02h-2.83v-1.55h7.74v1.55h-2.84v5.02H69.79z"/>
		<path class="st0" d="M87.18,29.18h-0.61c-0.65,0-1.23-0.06-1.71-0.17c-0.49-0.11-0.87-0.25-1.13-0.41
			c-0.27-0.16-0.48-0.35-0.63-0.58c-0.16-0.23-0.26-0.43-0.3-0.61c-0.04-0.18-0.07-0.38-0.07-0.58v-0.1h2.15
			c0.05,0.7,0.7,1.04,1.95,1.04h0.12c0.41,0,0.75-0.02,1.02-0.06c0.27-0.04,0.47-0.09,0.59-0.16c0.12-0.07,0.21-0.14,0.25-0.22
			c0.04-0.07,0.06-0.16,0.06-0.26c0-0.14-0.04-0.25-0.11-0.34c-0.07-0.08-0.24-0.15-0.49-0.22c-0.26-0.06-0.63-0.1-1.12-0.11
			l-1.13-0.03c-2.14-0.06-3.21-0.7-3.21-1.93v-0.08c0-0.21,0.03-0.41,0.08-0.59c0.05-0.18,0.16-0.36,0.32-0.54
			c0.16-0.18,0.37-0.33,0.62-0.45c0.26-0.12,0.6-0.23,1.04-0.3c0.44-0.08,0.94-0.12,1.52-0.12H87c0.6,0,1.13,0.04,1.59,0.12
			c0.46,0.08,0.83,0.19,1.1,0.32c0.27,0.13,0.5,0.29,0.67,0.48c0.17,0.19,0.29,0.38,0.36,0.56c0.06,0.19,0.1,0.38,0.1,0.6v0.09
			h-2.14c-0.01-0.07-0.03-0.13-0.05-0.18c-0.02-0.05-0.07-0.12-0.15-0.2c-0.08-0.08-0.18-0.15-0.3-0.2
			c-0.12-0.05-0.31-0.1-0.55-0.14c-0.24-0.04-0.53-0.06-0.85-0.06h-0.14c-0.49,0-0.87,0.03-1.14,0.09
			c-0.27,0.06-0.43,0.13-0.48,0.19c-0.06,0.07-0.08,0.16-0.08,0.28c0,0.11,0.03,0.2,0.09,0.27c0.06,0.07,0.21,0.14,0.44,0.19
			c0.23,0.06,0.56,0.09,0.99,0.1l1.1,0.02c1.22,0.02,2.11,0.19,2.65,0.5c0.54,0.31,0.82,0.79,0.82,1.45v0.12
			c0,0.24-0.03,0.46-0.08,0.65c-0.05,0.19-0.16,0.39-0.33,0.59c-0.16,0.2-0.38,0.37-0.66,0.5c-0.27,0.14-0.65,0.25-1.12,0.33
			C88.37,29.14,87.82,29.18,87.18,29.18z"/>
		<path class="st0" d="M103.45,29.07h-2.27l-2.7-6.57h2.24l1.7,4.52l1.47-4.52h2.19l1.5,4.39l1.66-4.39h2.02l-2.66,6.57h-2.08
			l-1.58-4.4L103.45,29.07z"/>
		<path class="st0" d="M119.29,22.49h6.93v1.49h-4.89v0.97h4.78v1.5h-4.78v1.08h4.98v1.53h-7.01V22.49z"/>
		<path class="st0" d="M141.43,29.07l-0.62-1.2h-3.98l-0.59,1.2h-2.09l3.32-6.57h2.67l3.52,6.57H141.43z M140.06,26.38l-1.27-2.46
			l-1.22,2.46H140.06z"/>
		<path class="st0" d="M153.71,26.73v2.33h-2.06v-6.57h5.3c1.9,0,2.85,0.57,2.85,1.71v0.11c0,0.7-0.41,1.18-1.22,1.44
			c0.37,0.11,0.67,0.28,0.9,0.53c0.23,0.25,0.34,0.58,0.34,0.98v0.96c0,0.39,0.04,0.66,0.12,0.8v0.04h-2.09
			c-0.06-0.08-0.1-0.22-0.1-0.42v-0.76c0-0.41-0.1-0.7-0.31-0.88c-0.21-0.18-0.56-0.27-1.06-0.27H153.71z M153.71,23.99v1.29h3.12
			c0.28,0,0.49-0.06,0.63-0.18c0.14-0.12,0.2-0.27,0.2-0.47v-0.01c0-0.19-0.07-0.34-0.2-0.46c-0.14-0.12-0.34-0.18-0.63-0.18H153.71
			z"/>
	</g>
</g>
</svg>
