<?xml version="1.0" encoding="utf-8"?>
<!-- Generator: Adobe Illustrator 26.0.0, SVG Export Plug-In . SVG Version: 6.00 Build 0)  -->
<svg version="1.1" id="Capa_1" xmlns="http://www.w3.org/2000/svg" xmlns:xlink="http://www.w3.org/1999/xlink" x="0px" y="0px"
	 viewBox="0 0 24 24" style="enable-background:new 0 0 24 24;" xml:space="preserve">
<style type="text/css">
	.st0{fill:none;stroke:#000000;stroke-width:2;stroke-linecap:round;stroke-linejoin:round;}
</style>
<path class="st0" d="M9,20c0.55,0,1,0.45,1,1s-0.45,1-1,1s-1-0.45-1-1S8.45,20,9,20z M20,20c0.55,0,1,0.45,1,1s-0.45,1-1,1
	s-1-0.45-1-1S19.45,20,20,20z M1,1h4l2.68,13.39c0.19,0.95,1.03,1.63,2,1.61h9.72c0.97,0.02,1.81-0.66,2-1.61L23,6H6"/>
</svg>
